<svg width="2253.91953125px" height="329px" xmlns="http://www.w3.org/2000/svg" viewBox="-876.959765625 -89.5 2253.91953125 329" style="background: rgba(0, 0, 0, 0);" preserveAspectRatio="xMidYMid"><defs><filter id="editing-metal-beveled"><feGaussianBlur stdDeviation="4" in="SourceAlpha" result="blur"></feGaussianBlur><feSpecularLighting surfaceScale="5" specularConstant="0.8" specularExponent="7.5" lighting-color="#ffffff" in="blur" result="specular"><fePointLight x="-250" y="-50" z="300"></fePointLight></feSpecularLighting><feComposite operator="in" in="specular" in2="SourceAlpha" result="comp"></feComposite><feComposite in="SourceGraphic" in2="comp" operator="arithmetic" k1="0" k2="1" k3="1" k4="0"></feComposite></filter></defs><g filter="url(#editing-metal-beveled)"><g transform="translate(-574.9011716842651, 147.00000381469727)"><path d="M12.20 0L12.20 0Q9.20 0 9.20-3L9.20-3L9.20-3Q9.20-6 12.20-6L12.20-6L26.20-6L26.20-6Q29.20-6 29.20-9L29.20-9L29.20-131L29.20-131Q29.20-134 26.20-134L26.20-134L12.20-134L12.20-134Q9.20-134 9.20-137L9.20-137L9.20-137Q9.20-140 12.20-140L12.20-140L52.20-140L52.20-140Q55.20-140 55.20-137L55.20-137L55.20-137Q55.20-134 52.20-134L52.20-134L38.20-134L38.20-134Q35.20-134 35.20-131L35.20-131L35.20-9L35.20-9Q35.20-6 38.20-6L38.20-6L52.20-6L52.20-6Q55.20-6 55.20-3L55.20-3L55.20-3Q55.20 0 52.20 0L52.20 0L12.20 0ZM74.40-3.40L74.40-3.40L74.40-3.40Q74.40-4.20 76.80-8L76.80-8L166.60-130.80L166.60-130.80Q167.80-132 167.20-133L167.20-133L167.20-133Q166.60-134 164.40-134L164.40-134L84.40-134L84.40-134Q81.40-134 81.40-131L81.40-131L81.40-109L81.40-109Q81.40-106 78.40-106L78.40-106L78.40-106Q75.40-106 75.40-109L75.40-109L75.40-137L75.40-137Q75.40-140 78.40-140L78.40-140L174.40-140L174.40-140Q177.40-140 177.40-136.60L177.40-136.60L177.40-136.60Q177.40-135.80 175-132L175-132L85.20-9.20L85.20-9.20Q84-8 84.60-7L84.60-7L84.60-7Q85.20-6 87.40-6L87.40-6L167.40-6L167.40-6Q170.40-6 170.40-9L170.40-9L170.40-31L170.40-31Q170.40-34 173.40-34L173.40-34L173.40-34Q176.40-34 176.40-31L176.40-31L176.40-3L176.40-3Q176.40 0 173.40 0L173.40 0L77.40 0L77.40 0Q74.40 0 74.40-3.40ZM196-140L196-140L234-140L234-140Q237-140 237-137L237-137L237-137Q237-134 234-134L234-134L222-134L222-134Q219-134 219-131L219-131L219-50L219-50Q219-29.20 232-16.60L232-16.60L232-16.60Q245-4 265-4L265-4L265-4Q285-4 298-16.60L298-16.60L298-16.60Q311-29.20 311-50L311-50L311-131L311-131Q311-134 308-134L308-134L296-134L296-134Q293-134 293-137L293-137L293-137Q293-140 296-140L296-140L334-140L334-140Q337-140 337-137L337-137L337-137Q337-134 334-134L334-134L320-134L320-134Q317-134 317-131L317-131L317-50L317-50Q317-27 302.30-12.50L302.30-12.50L302.30-12.50Q287.60 2 265 2L265 2L265 2Q242.40 2 227.70-12.50L227.70-12.50L227.70-12.50Q213-27 213-50L213-50L213-131L213-131Q213-134 210-134L210-134L196-134L196-134Q193-134 193-137L193-137L193-137Q193-140 196-140ZM354.80-6L354.80-6L368.80-6L368.80-6Q371.80-6 371.80-9L371.80-9L371.80-131L371.80-131Q371.80-134 368.80-134L368.80-134L354.80-134L354.80-134Q351.80-134 351.80-137L351.80-137L351.80-137Q351.80-140 354.80-140L354.80-140L376.80-140L376.80-140Q380-140 381.80-137L381.80-137L463.80-12L463.80-12Q464.20-11.20 465-11.30L465-11.30L465-11.30Q465.80-11.40 465.80-13L465.80-13L465.80-131L465.80-131Q465.80-134 462.80-134L462.80-134L450.80-134L450.80-134Q447.80-134 447.80-137L447.80-137L447.80-137Q447.80-140 450.80-140L450.80-140L488.80-140L488.80-140Q491.80-140 491.80-137L491.80-137L491.80-137Q491.80-134 488.80-134L488.80-134L474.80-134L474.80-134Q471.80-134 471.80-131L471.80-131L471.80-9L471.80-9Q471.80-6 474.80-6L474.80-6L488.80-6L488.80-6Q491.80-6 491.80-3L491.80-3L491.80-3Q491.80 0 488.80 0L488.80 0L466.80 0L466.80 0Q463.60 0 461.80-3L461.80-3L379.80-128L379.80-128Q379.40-128.80 378.60-128.70L378.60-128.70L378.60-128.70Q377.80-128.60 377.80-127L377.80-127L377.80-9L377.80-9Q377.80-6 380.80-6L380.80-6L392.80-6L392.80-6Q395.80-6 395.80-3L395.80-3L395.80-3Q395.80 0 392.80 0L392.80 0L354.80 0L354.80 0Q351.80 0 351.80-3L351.80-3L351.80-3Q351.80-6 354.80-6ZM511.80-6L511.80-6L525.80-6L525.80-6Q528.80-6 528.80-9L528.80-9L528.80-131L528.80-131Q528.80-134 525.80-134L525.80-134L511.80-134L511.80-134Q508.80-134 508.80-137L508.80-137L508.80-137Q508.80-140 511.80-140L511.80-140L533.80-140L533.80-140Q537-140 538.80-137L538.80-137L620.80-12L620.80-12Q621.20-11.20 622-11.30L622-11.30L622-11.30Q622.80-11.40 622.80-13L622.80-13L622.80-131L622.80-131Q622.80-134 619.80-134L619.80-134L607.80-134L607.80-134Q604.80-134 604.80-137L604.80-137L604.80-137Q604.80-140 607.80-140L607.80-140L645.80-140L645.80-140Q648.80-140 648.80-137L648.80-137L648.80-137Q648.80-134 645.80-134L645.80-134L631.80-134L631.80-134Q628.80-134 628.80-131L628.80-131L628.80-9L628.80-9Q628.80-6 631.80-6L631.80-6L645.80-6L645.80-6Q648.80-6 648.80-3L648.80-3L648.80-3Q648.80 0 645.80 0L645.80 0L623.80 0L623.80 0Q620.60 0 618.80-3L618.80-3L536.80-128L536.80-128Q536.40-128.80 535.60-128.70L535.60-128.70L535.60-128.70Q534.80-128.60 534.80-127L534.80-127L534.80-9L534.80-9Q534.80-6 537.80-6L537.80-6L549.80-6L549.80-6Q552.80-6 552.80-3L552.80-3L552.80-3Q552.80 0 549.80 0L549.80 0L511.80 0L511.80 0Q508.80 0 508.80-3L508.80-3L508.80-3Q508.80-6 511.80-6ZM757.60-57.80L730.20-129L730.20-129Q729.80-130.20 729-130.20L729-130.20L729-130.20Q728.20-130.20 727.80-129L727.80-129L700.40-57.80L700.40-57.80Q698.80-54.80 702.60-54.80L702.60-54.80L755.40-54.80L755.40-54.80Q759-54.80 757.60-57.80L757.60-57.80ZM776.40-9L762.20-46L762.20-46Q761-48.80 757.40-48.80L757.40-48.80L700.60-48.80L700.60-48.80Q697-48.80 695.80-46L695.80-46L681.60-9L681.60-9Q680-6 683.60-6L683.60-6L695.60-6L695.60-6Q698.60-6 698.60-3L698.60-3L698.60-3Q698.60 0 695.60 0L695.60 0L657.60 0L657.60 0Q654.60 0 654.60-3L654.60-3L654.60-3Q654.60-6 657.60-6L657.60-6L670.60-6L670.60-6Q673-6 674.60-9L674.60-9L724.60-139L724.60-139Q725.40-142 729-142L729-142L729-142Q732.60-142 733.40-139L733.40-139L783.40-9L783.40-9Q784.80-6 787.40-6L787.40-6L800.40-6L800.40-6Q803.40-6 803.40-3L803.40-3L803.40-3Q803.40 0 800.40 0L800.40 0L762.40 0L762.40 0Q759.40 0 759.40-3L759.40-3L759.40-3Q759.40-6 762.40-6L762.40-6L774.40-6L774.40-6Q777.80-6 776.40-9L776.40-9ZM887.40-18.30L887.40-18.30L887.40-18.30Q869.00-38.60 869.00-70L869.00-70L869.00-70Q869.00-101.40 887.40-121.70L887.40-121.70L887.40-121.70Q905.80-142 936.00-142L936.00-142L936.00-142Q966.20-142 984.60-121.70L984.60-121.70L984.60-121.70Q1003.00-101.40 1003.00-70L1003.00-70L1003.00-70Q1003.00-38.60 984.60-18.30L984.60-18.30L984.60-18.30Q966.20 2 936.00 2L936.00 2L936.00 2Q905.80 2 887.40-18.30ZM891.80-117.40L891.80-117.40L891.80-117.40Q875.00-98.80 875.00-70L875.00-70L875.00-70Q875.00-41.20 891.80-22.60L891.80-22.60L891.80-22.60Q908.60-4 936.00-4L936.00-4L936.00-4Q963.40-4 980.20-22.60L980.20-22.60L980.20-22.60Q997.00-41.20 997.00-70L997.00-70L997.00-70Q997.00-98.80 980.20-117.40L980.20-117.40L980.20-117.40Q963.40-136 936.00-136L936.00-136L936.00-136Q908.60-136 891.80-117.40ZM1102.60-74.80L1102.60-74.80L1102.60-74.80Q1131.60-69.20 1131.60-36.40L1131.60-36.40L1131.60-36.40Q1131.60-20.40 1121.70-10.20L1121.70-10.20L1121.70-10.20Q1111.80 0 1093.60 0L1093.60 0L1024.60 0L1024.60 0Q1021.60 0 1021.60-3L1021.60-3L1021.60-3Q1021.60-6 1024.60-6L1024.60-6L1038.60-6L1038.60-6Q1041.60-6 1041.60-9L1041.60-9L1041.60-131L1041.60-131Q1041.60-134 1038.60-134L1038.60-134L1024.60-134L1024.60-134Q1021.60-134 1021.60-137L1021.60-137L1021.60-137Q1021.60-140 1024.60-140L1024.60-140L1085.60-140L1085.60-140Q1101.60-140 1111.60-130L1111.60-130L1111.60-130Q1121.60-120 1121.60-105L1121.60-105L1121.60-105Q1121.60-83.80 1102.60-74.80ZM1047.60-131L1047.60-79L1047.60-79Q1047.60-76 1050.60-76L1050.60-76L1086.60-76L1086.60-76Q1099.20-76 1107.40-84.50L1107.40-84.50L1107.40-84.50Q1115.60-93 1115.60-105.40L1115.60-105.40L1115.60-105.40Q1115.60-117.80 1107.50-125.90L1107.50-125.90L1107.50-125.90Q1099.40-134 1085.60-134L1085.60-134L1050.60-134L1050.60-134Q1047.60-134 1047.60-131L1047.60-131ZM1047.60-67L1047.60-9L1047.60-9Q1047.60-6 1050.60-6L1050.60-6L1093.60-6L1093.60-6Q1108.60-6 1117.10-14.50L1117.10-14.50L1117.10-14.50Q1125.60-23 1125.60-38L1125.60-38L1125.60-38Q1125.60-53 1117.10-61.50L1117.10-61.50L1117.10-61.50Q1108.60-70 1093.60-70L1093.60-70L1050.60-70L1050.60-70Q1047.60-70 1047.60-67L1047.60-67ZM1153.20 0L1153.20 0Q1150.20 0 1150.20-3L1150.20-3L1150.20-3Q1150.20-6 1153.20-6L1153.20-6L1167.20-6L1167.20-6Q1170.20-6 1170.20-9L1170.20-9L1170.20-131L1170.20-131Q1170.20-134 1167.20-134L1167.20-134L1153.20-134L1153.20-134Q1150.20-134 1150.20-137L1150.20-137L1150.20-137Q1150.20-140 1153.20-140L1153.20-140L1193.20-140L1193.20-140Q1196.20-140 1196.20-137L1196.20-137L1196.20-137Q1196.20-134 1193.20-134L1193.20-134L1179.20-134L1179.20-134Q1176.20-134 1176.20-131L1176.20-131L1176.20-9L1176.20-9Q1176.20-6 1179.20-6L1179.20-6L1193.20-6L1193.20-6Q1196.20-6 1196.20-3L1196.20-3L1196.20-3Q1196.20 0 1193.20 0L1193.20 0L1153.20 0ZM1233.20-18.30L1233.20-18.30L1233.20-18.30Q1214.80-38.60 1214.80-70L1214.80-70L1214.80-70Q1214.80-101.40 1233.20-121.70L1233.20-121.70L1233.20-121.70Q1251.60-142 1281.80-142L1281.80-142L1281.80-142Q1312.00-142 1330.40-121.70L1330.40-121.70L1330.40-121.70Q1348.80-101.40 1348.80-70L1348.80-70L1348.80-70Q1348.80-38.60 1330.40-18.30L1330.40-18.30L1330.40-18.30Q1312.00 2 1281.80 2L1281.80 2L1281.80 2Q1251.60 2 1233.20-18.30ZM1237.60-117.40L1237.60-117.40L1237.60-117.40Q1220.80-98.80 1220.80-70L1220.80-70L1220.80-70Q1220.80-41.20 1237.60-22.60L1237.60-22.60L1237.60-22.60Q1254.40-4 1281.80-4L1281.80-4L1281.80-4Q1309.20-4 1326.00-22.60L1326.00-22.60L1326.00-22.60Q1342.80-41.20 1342.80-70L1342.80-70L1342.80-70Q1342.80-98.80 1326.00-117.40L1326.00-117.40L1326.00-117.40Q1309.20-136 1281.80-136L1281.80-136L1281.80-136Q1254.40-136 1237.60-117.40ZM1396.40-70L1437.40-70L1437.40-70Q1453.80-70 1462.60-78.40L1462.60-78.40L1462.60-78.40Q1471.40-86.80 1471.40-102L1471.40-102L1471.40-102Q1471.40-117.20 1462.60-125.60L1462.60-125.60L1462.60-125.60Q1453.80-134 1437.40-134L1437.40-134L1396.40-134L1396.40-134Q1393.40-134 1393.40-131L1393.40-131L1393.40-73L1393.40-73Q1393.40-70 1396.40-70L1396.40-70ZM1393.40-61L1393.40-9L1393.40-9Q1393.40-6 1396.40-6L1396.40-6L1408.40-6L1408.40-6Q1411.40-6 1411.40-3L1411.40-3L1411.40-3Q1411.40 0 1408.40 0L1408.40 0L1370.40 0L1370.40 0Q1367.40 0 1367.40-3L1367.40-3L1367.40-3Q1367.40-6 1370.40-6L1370.40-6L1384.40-6L1384.40-6Q1387.40-6 1387.40-9L1387.40-9L1387.40-131L1387.40-131Q1387.40-134 1384.40-134L1384.40-134L1370.40-134L1370.40-134Q1367.40-134 1367.40-137L1367.40-137L1367.40-137Q1367.40-140 1370.40-140L1370.40-140L1437.40-140L1437.40-140Q1456.80-140 1467.10-130L1467.10-130L1467.10-130Q1477.40-120 1477.40-102L1477.40-102L1477.40-102Q1477.40-84 1467.10-74L1467.10-74L1467.10-74Q1456.80-64 1437.40-64L1437.40-64L1436.40-64L1436.40-64Q1434.80-64 1434.10-63.10L1434.10-63.10L1434.10-63.10Q1433.40-62.20 1434.40-61L1434.40-61L1472.40-9L1472.40-9Q1475.00-6 1477.40-6L1477.40-6L1490.40-6L1490.40-6Q1493.40-6 1493.40-3L1493.40-3L1493.40-3Q1493.40 0 1490.40 0L1490.40 0L1450.40 0L1450.40 0Q1447.40 0 1447.40-3L1447.40-3L1447.40-3Q1447.40-6 1450.40-6L1450.40-6L1463.40-6L1463.40-6Q1467.00-6 1464.40-9L1464.40-9L1424.40-64L1396.40-64L1396.40-64Q1393.40-64 1393.40-61L1393.40-61ZM1596.80-57.80L1569.40-129L1569.40-129Q1569.00-130.20 1568.20-130.20L1568.20-130.20L1568.20-130.20Q1567.40-130.20 1567.00-129L1567.00-129L1539.60-57.80L1539.60-57.80Q1538.00-54.80 1541.80-54.80L1541.80-54.80L1594.60-54.80L1594.60-54.80Q1598.20-54.80 1596.80-57.80L1596.80-57.80ZM1615.60-9L1601.40-46L1601.40-46Q1600.20-48.80 1596.60-48.80L1596.60-48.80L1539.80-48.80L1539.80-48.80Q1536.20-48.80 1535.00-46L1535.00-46L1520.80-9L1520.80-9Q1519.20-6 1522.80-6L1522.80-6L1534.80-6L1534.80-6Q1537.80-6 1537.80-3L1537.80-3L1537.80-3Q1537.80 0 1534.80 0L1534.80 0L1496.80 0L1496.80 0Q1493.80 0 1493.80-3L1493.80-3L1493.80-3Q1493.80-6 1496.80-6L1496.80-6L1509.80-6L1509.80-6Q1512.20-6 1513.80-9L1513.80-9L1563.80-139L1563.80-139Q1564.60-142 1568.20-142L1568.20-142L1568.20-142Q1571.80-142 1572.60-139L1572.60-139L1622.60-9L1622.60-9Q1624.00-6 1626.60-6L1626.60-6L1639.60-6L1639.60-6Q1642.60-6 1642.60-3L1642.60-3L1642.60-3Q1642.60 0 1639.60 0L1639.60 0L1601.60 0L1601.60 0Q1598.60 0 1598.60-3L1598.60-3L1598.60-3Q1598.60-6 1601.60-6L1601.60-6L1613.60-6L1613.60-6Q1617.00-6 1615.60-9L1615.60-9Z" fill="#ffffff"></path></g></g><style>text {
  font-size: 64px;
  font-family: Arial Black;
  dominant-baseline: central;
  text-anchor: middle;
}</style></svg>